# xmcd
#
# Track frame offsets: 
#        150
#        12332
#        38414
#        61962
#        77272
#        108362
#        135686
#        164924
#        187512
#        225477
#        251306
#
# Disc length: 3527 seconds
#
# Revision: 0
# Processed by: cddbd v1.5.2PL0 Copyright (c) Steve Scherf et al.
# Submitted via: ExactAudioCopyFreeDBPlugin 1.0
#
DISCID=770dc50b
DTITLE=Red Peters - The Red Peters Story - 1981
DYEAR=2013
DGENRE=Blues
TTITLE0=Introduction - Baby It Must Be Love
TTITLE1=Interview - Southbound Train
TTITLE2=Interview - Battle Is Over
TTITLE3=Interview - You Got It
TTITLE4=Interview - Like A Road Leading Home
TTITLE5=Interview - (I’ll never) Live In Vain
TTITLE6=Interview - Who Will The Next Fool Be
TTITLE7=Interview - Relax Your Mind
TTITLE8=Interview - Meet Me In The Morning
TTITLE9=Interview - Same Old Blues
TTITLE10=Interview - Like A Road Leading Home
EXTD=
EXTT0=
EXTT1=
EXTT2=
EXTT3=
EXTT4=
EXTT5=
EXTT6=
EXTT7=
EXTT8=
EXTT9=
EXTT10=
PLAYORDER=
